<svg id="LOGO" xmlns="http://www.w3.org/2000/svg" viewBox="0 0 370.42 178.24"><defs><style>.cls-1{fill:#fff;}.cls-2{fill:#1d1d1b;}.cls-3{fill:#00ce7c;}</style></defs><path class="cls-1" d="M339.07,21.21A89.11,89.11,0,0,0,218.32,26.1l0,0-8.41,8.42a9.28,9.28,0,0,0,0,13.15l16.75,16.75a9.28,9.28,0,0,0,13.15,0L248.32,56l0,0A46.78,46.78,0,0,1,289.66,43a45.24,45.24,0,0,1,18.1,7.41,46.92,46.92,0,0,1,0,77.39,45.29,45.29,0,0,1-18.06,7.42,46.77,46.77,0,0,1-41.3-12.82l0,0-8.59-8.58a9.28,9.28,0,0,0-13.15,0l-16.75,16.75a9.28,9.28,0,0,0,0,13.15l8.41,8.41,0,0A89.13,89.13,0,1,0,339.07,21.21Z"/><path class="cls-1" d="M143.82,113.81a9.31,9.31,0,0,0-13.16,0l-8.42,8.43a46.91,46.91,0,0,1-71.78-6.65A45.17,45.17,0,0,1,43,97.41,46.87,46.87,0,0,1,122.24,56l8.42,8.43a9.31,9.31,0,0,0,13.16,0l16.75-16.75a9.31,9.31,0,0,0,0-13.16l-8.43-8.43a89.08,89.08,0,1,0,0,126l8.43-8.42a9.31,9.31,0,0,0,0-13.16Z"/><rect class="cls-1" x="162.01" y="65.93" width="46.39" height="46.39" rx="13.03" transform="translate(-8.77 157.07) rotate(-45)"/><path class="cls-2" d="M339.07,21.21A89.11,89.11,0,0,0,218.32,26.1l0,0-8.41,8.42a9.28,9.28,0,0,0,0,13.15l16.75,16.75a9.28,9.28,0,0,0,13.15,0L248.32,56l0,0A46.78,46.78,0,0,1,289.66,43a45.24,45.24,0,0,1,18.1,7.41,46.92,46.92,0,0,1,0,77.39,45.29,45.29,0,0,1-18.06,7.42,46.77,46.77,0,0,1-41.3-12.82l0,0-8.59-8.58a9.28,9.28,0,0,0-13.15,0l-16.75,16.75a9.28,9.28,0,0,0,0,13.15l8.41,8.41,0,0A89.13,89.13,0,1,0,339.07,21.21Z"/><path class="cls-2" d="M143.82,113.81a9.31,9.31,0,0,0-13.16,0l-8.42,8.43a46.91,46.91,0,0,1-71.78-6.65A45.17,45.17,0,0,1,43,97.41,46.87,46.87,0,0,1,122.24,56l8.42,8.43a9.31,9.31,0,0,0,13.16,0l16.75-16.75a9.31,9.31,0,0,0,0-13.16l-8.43-8.43a89.08,89.08,0,1,0,0,126l8.43-8.42a9.31,9.31,0,0,0,0-13.16Z"/><rect class="cls-3" x="162.01" y="65.93" width="46.39" height="46.39" rx="13.03" transform="translate(-8.77 157.07) rotate(-45)"/></svg>